<?xml version="1.0" encoding="utf-8"?>
<!-- Generator: Adobe Illustrator 16.0.0, SVG Export Plug-In . SVG Version: 6.00 Build 0)  -->
<!DOCTYPE svg PUBLIC "-//W3C//DTD SVG 1.1//EN" "http://www.w3.org/Graphics/SVG/1.1/DTD/svg11.dtd">
<svg xmlns="http://www.w3.org/2000/svg" xmlns:xlink="http://www.w3.org/1999/xlink" version="1.1" id="Ebene_1" x="0px" y="0px" width="340px" height="88px" viewBox="0.935 -10.299 340 88" xml:space="preserve">
<g>
	<path fill="#595657" d="M91.949,49.237h-3.64l2.899-16.212h-15.51l-2.856,16.212H69.16l6.412-35.934h3.681l-2.857,15.762h15.511   l2.856-15.762h3.641L91.949,49.237z"/>
	<path fill="#595657" d="M123.457,17.112h-8.634l-5.713,32.125h-3.64l5.756-32.125h-8.824l0.677-3.809h21.076L123.457,17.112z"/>
	<path fill="#595657" d="M140.089,49.237l-1.375-10.048h-12.865l-4.909,10.048h-4.191l18.071-35.934h3.724l5.29,35.934H140.089z    M136.195,20.095c-0.014-0.167-0.025-0.359-0.031-0.577c-0.007-0.217-0.01-0.434-0.01-0.651c0-0.233,0-0.452,0-0.652   c0-0.217,0-0.401,0-0.552h-0.085c-0.043,0.149-0.099,0.33-0.169,0.539c-0.071,0.209-0.148,0.426-0.232,0.651   c-0.085,0.226-0.172,0.447-0.265,0.664c-0.091,0.217-0.172,0.41-0.244,0.577l-7.49,15.287h10.474L136.195,20.095z"/>
	<path fill="#595657" d="M172.803,19.269c-0.41-0.318-0.879-0.644-1.408-0.978c-0.528-0.334-1.111-0.635-1.746-0.903   c-0.635-0.267-1.33-0.484-2.083-0.651c-0.756-0.167-1.564-0.251-2.424-0.251c-2.116,0-4.024,0.443-5.724,1.327   c-1.7,0.886-3.143,2.106-4.328,3.66c-1.185,1.553-2.098,3.378-2.74,5.475c-0.642,2.097-0.962,4.365-0.962,6.805   c0,1.988,0.232,3.746,0.698,5.273c0.466,1.529,1.128,2.816,1.99,3.859c0.859,1.044,1.888,1.834,3.088,2.368   c1.199,0.535,2.525,0.803,3.979,0.803c0.931,0,1.777-0.062,2.539-0.188c0.761-0.124,1.466-0.301,2.116-0.525   c0.649-0.227,1.259-0.493,1.83-0.803c0.571-0.309,1.125-0.639,1.662-0.989l-0.825,4.41c-1.143,0.617-2.367,1.091-3.671,1.414   c-1.305,0.326-2.769,0.49-4.391,0.49c-1.919,0-3.665-0.376-5.237-1.128c-1.573-0.752-2.914-1.816-4.021-3.194   c-1.107-1.379-1.965-3.036-2.571-4.976c-0.607-1.938-0.911-4.092-0.911-6.464c0-3.14,0.42-6.022,1.259-8.646   c0.84-2.623,2.031-4.877,3.576-6.766c1.545-1.888,3.4-3.358,5.566-4.41c2.165-1.053,4.567-1.579,7.206-1.579   c1.805,0,3.402,0.229,4.792,0.688c1.39,0.459,2.564,0.982,3.523,1.567L172.803,19.269z"/>
	<path fill="#595657" d="M200.077,19.269c-0.409-0.318-0.878-0.644-1.408-0.978c-0.527-0.334-1.11-0.635-1.745-0.903   c-0.636-0.267-1.331-0.484-2.085-0.651c-0.755-0.167-1.563-0.251-2.423-0.251c-2.115,0-4.024,0.443-5.724,1.327   c-1.701,0.886-3.142,2.106-4.328,3.66c-1.185,1.553-2.098,3.378-2.74,5.475c-0.643,2.097-0.962,4.365-0.962,6.805   c0,1.988,0.231,3.746,0.698,5.273c0.465,1.529,1.128,2.816,1.989,3.859c0.859,1.044,1.889,1.834,3.09,2.368   c1.198,0.535,2.524,0.803,3.979,0.803c0.931,0,1.776-0.062,2.537-0.188c0.762-0.124,1.468-0.301,2.116-0.525   c0.649-0.224,1.259-0.493,1.83-0.803c0.572-0.309,1.125-0.639,1.662-0.989l-0.826,4.41c-1.142,0.617-2.367,1.091-3.67,1.414   c-1.305,0.327-2.769,0.49-4.391,0.49c-1.918,0-3.665-0.376-5.237-1.128c-1.574-0.752-2.914-1.816-4.021-3.194   c-1.107-1.379-1.964-3.036-2.571-4.976c-0.607-1.938-0.911-4.092-0.911-6.464c0-3.14,0.419-6.022,1.26-8.646   c0.839-2.623,2.031-4.877,3.576-6.766c1.545-1.888,3.399-3.358,5.566-4.41c2.165-1.053,4.566-1.579,7.204-1.579   c1.806,0,3.403,0.229,4.793,0.688c1.391,0.459,2.564,0.982,3.524,1.567L200.077,19.269z"/>
	<path fill="#595657" d="M222.4,17.112h-11.701l-2.201,12.253h10.834l-0.698,3.809H207.8l-2.221,12.254h12.442l-0.636,3.809h-16.081   l6.411-35.935h15.385L222.4,17.112z"/>
	<path fill="#595657" d="M242.334,18.691c-0.353-0.301-0.773-0.585-1.26-0.853c-0.487-0.267-1.007-0.501-1.565-0.702   c-0.557-0.199-1.14-0.358-1.746-0.476c-0.607-0.117-1.206-0.176-1.799-0.176c-1.128,0-2.076,0.188-2.844,0.563   c-0.77,0.376-1.387,0.853-1.853,1.429c-0.465,0.577-0.8,1.208-1.005,1.892c-0.205,0.685-0.306,1.328-0.306,1.929   c0,0.786,0.091,1.496,0.275,2.13c0.183,0.635,0.457,1.245,0.824,1.83c0.367,0.585,0.838,1.169,1.417,1.754   c0.579,0.585,1.256,1.211,2.032,1.879c0.875,0.752,1.653,1.495,2.337,2.23c0.685,0.736,1.266,1.491,1.747,2.268   c0.48,0.778,0.842,1.596,1.09,2.456c0.246,0.859,0.37,1.791,0.37,2.793c0,0.619-0.053,1.3-0.159,2.043   c-0.105,0.742-0.294,1.491-0.571,2.242c-0.276,0.753-0.653,1.487-1.132,2.206c-0.479,0.717-1.09,1.354-1.831,1.904   c-0.74,0.552-1.633,0.995-2.677,1.329c-1.043,0.332-2.272,0.501-3.682,0.501c-0.791,0-1.565-0.066-2.328-0.203   c-0.761-0.133-1.484-0.309-2.168-0.524c-0.685-0.218-1.313-0.465-1.884-0.739c-0.572-0.275-1.062-0.546-1.471-0.814l0.614-4.36   c0.452,0.387,0.966,0.749,1.545,1.09c0.578,0.343,1.192,0.645,1.84,0.904c0.649,0.258,1.32,0.464,2.011,0.614   c0.691,0.15,1.376,0.226,2.053,0.226c1.071,0,1.991-0.15,2.761-0.45c0.769-0.302,1.404-0.714,1.905-1.242   c0.5-0.524,0.867-1.147,1.1-1.866c0.232-0.718,0.35-1.496,0.35-2.33c0-0.752-0.099-1.429-0.295-2.03   c-0.198-0.601-0.501-1.191-0.91-1.767c-0.41-0.576-0.928-1.161-1.556-1.754c-0.628-0.594-1.372-1.25-2.232-1.967   c-0.692-0.584-1.351-1.216-1.978-1.892c-0.628-0.676-1.179-1.417-1.651-2.218c-0.473-0.802-0.846-1.674-1.121-2.619   c-0.275-0.944-0.413-1.967-0.413-3.07c0-1.37,0.215-2.668,0.645-3.897c0.431-1.228,1.069-2.305,1.915-3.231   c0.848-0.928,1.895-1.663,3.143-2.206c1.249-0.543,2.697-0.814,4.348-0.814c0.635,0,1.265,0.045,1.894,0.137   c0.627,0.092,1.238,0.218,1.83,0.376c0.594,0.158,1.153,0.334,1.683,0.526c0.529,0.192,0.998,0.388,1.406,0.589L242.334,18.691z"/>
	<path fill="#595657" d="M263.875,18.691c-0.354-0.301-0.772-0.585-1.259-0.853c-0.488-0.267-1.008-0.501-1.566-0.702   c-0.556-0.199-1.14-0.358-1.746-0.476c-0.607-0.117-1.206-0.176-1.799-0.176c-1.129,0-2.077,0.188-2.846,0.563   c-0.77,0.376-1.386,0.853-1.852,1.429c-0.465,0.577-0.8,1.208-1.005,1.892c-0.205,0.685-0.307,1.328-0.307,1.929   c0,0.786,0.091,1.496,0.274,2.13c0.184,0.635,0.458,1.245,0.826,1.83c0.366,0.585,0.838,1.169,1.417,1.754   c0.579,0.585,1.257,1.211,2.032,1.879c0.875,0.752,1.654,1.495,2.339,2.23c0.684,0.736,1.265,1.491,1.746,2.268   c0.479,0.778,0.843,1.596,1.089,2.456c0.248,0.859,0.371,1.791,0.371,2.793c0,0.619-0.053,1.3-0.159,2.043   c-0.106,0.742-0.295,1.491-0.571,2.242c-0.275,0.753-0.653,1.487-1.131,2.206c-0.479,0.717-1.091,1.354-1.831,1.904   c-0.741,0.552-1.633,0.995-2.677,1.329c-1.044,0.332-2.271,0.501-3.681,0.501c-0.791,0-1.566-0.066-2.329-0.203   c-0.761-0.133-1.484-0.309-2.169-0.524c-0.685-0.218-1.312-0.465-1.884-0.739c-0.571-0.275-1.062-0.546-1.471-0.814l0.615-4.36   c0.451,0.387,0.965,0.749,1.545,1.09c0.578,0.343,1.191,0.645,1.84,0.904c0.648,0.258,1.319,0.464,2.01,0.614   s1.375,0.226,2.052,0.226c1.072,0,1.992-0.15,2.761-0.45c0.77-0.302,1.404-0.714,1.905-1.242c0.5-0.524,0.867-1.147,1.101-1.866   c0.232-0.718,0.349-1.496,0.349-2.33c0-0.752-0.099-1.429-0.296-2.03c-0.198-0.601-0.5-1.191-0.91-1.767   c-0.41-0.576-0.928-1.161-1.555-1.754c-0.628-0.594-1.373-1.25-2.233-1.967c-0.691-0.584-1.351-1.216-1.978-1.892   c-0.628-0.676-1.178-1.417-1.65-2.218c-0.474-0.802-0.846-1.674-1.122-2.619c-0.275-0.944-0.413-1.967-0.413-3.07   c0-1.37,0.214-2.668,0.646-3.897c0.43-1.228,1.068-2.305,1.914-3.231c0.847-0.928,1.894-1.663,3.142-2.206   c1.249-0.543,2.697-0.814,4.349-0.814c0.636,0,1.266,0.045,1.893,0.137c0.628,0.092,1.239,0.218,1.831,0.376   c0.593,0.158,1.153,0.334,1.682,0.526c0.53,0.192,1,0.388,1.406,0.589L263.875,18.691z"/>
	<path fill="#1BABE3" d="M287.723,20.922c0,1.437-0.208,2.793-0.624,4.072c-0.417,1.278-1.017,2.54-1.799,3.783   c-0.783,1.245-1.731,2.494-2.845,3.747c-1.115,1.253-2.377,2.564-3.789,3.934l-9.289,8.97v0.127h13.838l-0.656,3.682h-18.325   l0.636-3.583L276.719,33.9c1.27-1.27,2.371-2.427,3.301-3.47c0.932-1.044,1.704-2.047,2.317-3.009   c0.614-0.959,1.072-1.92,1.375-2.881c0.304-0.959,0.455-2,0.455-3.12c0-0.701-0.099-1.37-0.296-2.005   c-0.198-0.634-0.504-1.19-0.92-1.666c-0.416-0.476-0.945-0.856-1.587-1.14c-0.642-0.284-1.4-0.426-2.275-0.426   c-0.634,0-1.294,0.092-1.978,0.275c-0.684,0.185-1.368,0.435-2.052,0.752c-0.684,0.317-1.347,0.676-1.989,1.077   c-0.643,0.401-1.231,0.827-1.768,1.278l0.803-4.461c0.41-0.267,0.879-0.542,1.408-0.826c0.529-0.284,1.114-0.543,1.755-0.776   c0.642-0.233,1.331-0.426,2.064-0.577c0.733-0.151,1.495-0.226,2.285-0.226c1.425,0,2.648,0.226,3.671,0.676   c1.022,0.451,1.863,1.052,2.518,1.804c0.656,0.753,1.14,1.625,1.449,2.619C287.567,18.796,287.723,19.835,287.723,20.922z"/>
	<path fill="#1BABE3" d="M306.09,36.358h6.908l-0.656,3.332h-6.845l-1.693,9.547h-3.512l1.693-9.497H287.85l0.529-2.832   l17.626-23.604h4.211L306.09,36.358z M306.047,17.413c-0.212,0.368-0.466,0.807-0.762,1.315c-0.295,0.511-0.621,0.999-0.973,1.466   l-11.745,16.163h10.009l2.772-15.235c0.057-0.268,0.12-0.565,0.191-0.89c0.071-0.326,0.141-0.655,0.212-0.99   c0.07-0.334,0.138-0.66,0.201-0.977c0.063-0.317,0.124-0.602,0.18-0.853H306.047z"/>
</g>
<g>
	<path fill="#595657" d="M325.277,44.75c-0.063,0.34-0.123,0.748-0.18,1.225c-0.059,0.475-0.11,0.955-0.154,1.438   c-0.045,0.482-0.083,0.934-0.115,1.359c-0.03,0.422-0.047,0.752-0.047,0.984H322.5c0-0.183,0.011-0.422,0.034-0.724   c0.022-0.302,0.049-0.617,0.08-0.945c0.031-0.327,0.065-0.643,0.101-0.946c0.036-0.3,0.068-0.547,0.094-0.736h-0.054   c-0.322,0.612-0.644,1.156-0.966,1.627c-0.322,0.472-0.661,0.863-1.02,1.176c-0.358,0.313-0.738,0.549-1.141,0.708   c-0.402,0.157-0.844,0.237-1.328,0.237c-0.626,0-1.19-0.133-1.69-0.396c-0.501-0.266-0.928-0.654-1.281-1.168   c-0.354-0.514-0.624-1.149-0.813-1.907c-0.187-0.757-0.281-1.629-0.281-2.613c0-0.784,0.069-1.599,0.208-2.448   c0.139-0.848,0.354-1.678,0.644-2.494c0.291-0.815,0.659-1.589,1.107-2.32c0.447-0.73,0.98-1.371,1.596-1.922   c0.617-0.549,1.324-0.987,2.12-1.313c0.796-0.321,1.687-0.482,2.67-0.482c0.501,0,0.966,0.039,1.395,0.118   c0.43,0.08,0.8,0.161,1.113,0.247l1.396-7.786h2.174L325.277,44.75z M324.701,35.693c-0.34-0.115-0.696-0.207-1.067-0.275   c-0.371-0.07-0.767-0.105-1.187-0.105c-0.777,0-1.464,0.144-2.06,0.43c-0.594,0.285-1.113,0.666-1.555,1.145   c-0.443,0.477-0.814,1.02-1.114,1.629c-0.3,0.609-0.541,1.234-0.725,1.874c-0.183,0.641-0.313,1.271-0.388,1.892   c-0.077,0.619-0.114,1.178-0.114,1.675c0,0.594,0.042,1.134,0.127,1.622c0.085,0.486,0.224,0.905,0.416,1.254   c0.192,0.352,0.44,0.62,0.745,0.812c0.304,0.189,0.671,0.285,1.101,0.285c0.448,0,0.865-0.111,1.254-0.334   c0.389-0.221,0.754-0.524,1.094-0.904c0.339-0.382,0.648-0.82,0.925-1.319c0.277-0.497,0.528-1.026,0.751-1.588   s0.414-1.131,0.57-1.708c0.156-0.576,0.284-1.132,0.382-1.661L324.701,35.693z"/>
	<path fill="#595657" d="M340.935,37.3c0,0.857-0.16,1.64-0.483,2.343c-0.322,0.706-0.854,1.309-1.596,1.812   c-0.743,0.505-1.722,0.892-2.938,1.167c-1.217,0.275-2.72,0.42-4.508,0.43c-0.018,0.117-0.027,0.238-0.027,0.365   c0,0.117,0,0.222,0,0.318c0,0.572,0.067,1.111,0.202,1.621c0.134,0.508,0.342,0.953,0.623,1.335   c0.282,0.38,0.644,0.685,1.086,0.904c0.443,0.223,0.969,0.334,1.578,0.334c0.617,0,1.294-0.141,2.032-0.423   c0.737-0.278,1.442-0.679,2.113-1.197l-0.416,2.573c-0.492,0.339-1.078,0.637-1.757,0.889c-0.681,0.256-1.44,0.382-2.281,0.382   c-1.01,0-1.862-0.185-2.556-0.555c-0.693-0.372-1.252-0.866-1.677-1.486c-0.425-0.619-0.731-1.336-0.919-2.146   c-0.188-0.809-0.282-1.659-0.282-2.55c0-0.953,0.09-1.871,0.269-2.756c0.179-0.885,0.432-1.709,0.758-2.471   c0.326-0.764,0.717-1.46,1.174-2.09c0.457-0.631,0.962-1.168,1.516-1.612c0.555-0.444,1.149-0.788,1.784-1.032   c0.636-0.244,1.292-0.365,1.973-0.365c0.706,0,1.33,0.111,1.872,0.332c0.541,0.223,0.993,0.528,1.355,0.915   c0.361,0.386,0.637,0.833,0.824,1.342C340.841,36.188,340.935,36.727,340.935,37.3z M338.695,37.426   c0-0.668-0.208-1.187-0.624-1.557c-0.416-0.371-0.968-0.557-1.657-0.557c-0.546,0-1.073,0.141-1.584,0.42   c-0.51,0.283-0.979,0.668-1.408,1.161s-0.8,1.08-1.113,1.764s-0.541,1.422-0.685,2.216c1.279,0,2.366-0.077,3.26-0.23   c0.895-0.152,1.624-0.379,2.188-0.674c0.563-0.296,0.975-0.66,1.234-1.088C338.564,38.451,338.695,37.966,338.695,37.426z"/>
</g>
<polygon fill="#1BABE3" points="14.305,49.282 0.935,49.282 4.373,32.779 17.743,32.779 "/>
<polygon fill="#1BABE3" points="31.005,49.282 17.634,49.282 21.071,32.779 34.442,32.779 "/>
<polygon fill="#1BABE3" points="47.704,49.282 34.333,49.282 37.771,32.779 51.141,32.779 "/>
<polygon fill="#1BABE3" points="35.05,29.751 21.679,29.751 25.117,13.247 38.486,13.247 "/>
<polygon fill="#595657" points="51.749,29.751 38.378,29.751 41.815,13.247 55.186,13.247 "/>
<polygon fill="#1BABE3" points="68.448,29.751 55.078,29.751 58.516,13.247 71.886,13.247 "/>
<polygon fill="#595657" points="310.221,49.204 307.407,49.204 308.153,45.712 310.966,45.712 "/>
</svg>
